<svg width="258" height="213" viewBox="0 0 258 213" fill="none" xmlns="http://www.w3.org/2000/svg">
<g filter="url(#filter0_d_523_72)">
<path d="M166.339 32.5834C155.839 18.862 139.214 10 120.5 10C98.9237 10 80.123 21.7807 70.2865 39.2073C68.0061 38.4253 65.5538 38 63 38C50.8497 38 41 47.6259 41 59.5C41 61.0201 41.1614 62.5034 41.4684 63.9343C28.4925 72.9666 20 87.9915 20 105C20 132.614 42.3858 155 70 155C73.9103 155 77.7157 154.551 81.3676 153.702C87.8946 163.176 98.8186 169.386 111.193 169.386C118.655 169.386 125.589 167.128 131.35 163.258C142.584 175.399 158.654 183 176.5 183C210.466 183 238 155.466 238 121.5C238 109.006 234.274 97.3818 227.873 87.6784C231.057 84.2079 233 79.5809 233 74.5C233 67.5895 229.405 61.5187 223.984 58.0552C223.995 57.7048 224 57.353 224 57C224 38.2223 208.778 23 190 23C180.803 23 172.46 26.6513 166.339 32.5834Z" fill="white"/>
</g>
<path d="M71.2966 61.5973C73.2885 60.5348 75.6197 60 78.2903 60C81.4109 60 84.2438 60.7733 86.7816 62.3272C89.3194 63.8811 91.3187 66.1 92.7942 68.9765C94.2623 71.8602 95 75.2065 95 79.0226C95 82.8387 94.2623 86.1994 92.7942 89.0977C91.3261 92.0031 89.3194 94.2436 86.7816 95.8192C84.2438 97.3947 81.4183 98.1825 78.2903 98.1825C75.664 98.1825 73.3401 97.6477 71.3335 96.5853C69.3194 95.5228 67.7481 94.1496 66.612 92.4584V107H55V60.5348H66.612V65.7892C67.7407 64.0618 69.3047 62.6597 71.2966 61.5973ZM80.7691 72.3445C79.1608 70.7255 77.1837 69.916 74.8303 69.916C72.4769 69.916 70.5662 70.74 68.958 72.3806C67.3497 74.0212 66.5456 76.2617 66.5456 79.1021C66.5456 81.9425 67.3497 84.183 68.958 85.8236C70.5662 87.4642 72.5212 88.2882 74.8303 88.2882C77.1394 88.2882 79.1092 87.457 80.7396 85.7947C82.37 84.1324 83.1815 81.8847 83.1815 79.0443C83.1815 76.2039 82.3774 73.9779 80.7691 72.3589V72.3445Z" fill="#15AA2F"/>
<path d="M141 60V106.507H127.775V100.172C126.432 102.225 124.616 103.88 122.325 105.128C120.028 106.376 117.493 107 114.707 107C111.405 107 108.497 106.209 105.97 104.627C103.442 103.045 101.482 100.752 100.089 97.748C98.6964 94.7511 98 91.2172 98 87.1609V60H111.146V85.2524C111.146 88.3654 111.893 90.7818 113.386 92.5016C114.88 94.2287 116.89 95.0849 119.417 95.0849C121.945 95.0849 124.034 94.2214 125.527 92.5016C127.021 90.7818 127.768 88.3654 127.768 85.2524V60H140.993H141Z" fill="#15AA2F"/>
<path d="M169.986 71.5152H162.913V106H149.767V71.5152H145V59.7436H149.767V58.4156C149.767 52.7211 151.28 48.3978 154.306 45.4387C157.332 42.4796 161.764 41 167.609 41C168.58 41 169.301 41.0289 169.764 41.0866V53.1108C167.252 52.9448 165.482 53.3346 164.462 54.2728C163.434 55.2111 162.927 56.9 162.927 59.3322V59.7436H170V71.5152H169.986Z" fill="#15AA2F"/>
<path d="M198.986 71.5152H191.913V106H178.767V71.5152H174V59.7436H178.767V58.4156C178.767 52.7211 180.28 48.3978 183.306 45.4387C186.332 42.4796 190.764 41 196.609 41C197.58 41 198.301 41.0289 198.764 41.0866V53.1108C196.252 52.9448 194.482 53.3346 193.462 54.2728C192.434 55.2111 191.927 56.9 191.927 59.3322V59.7436H199V71.5152H198.986Z" fill="#15AA2F"/>
<path d="M69.4001 141C66.6573 141 64.2229 140.555 62.0972 139.665C60.0058 138.775 58.3429 137.542 57.1086 135.967C55.8743 134.392 55.1714 132.612 55 130.626H65.9544C66.0915 131.482 66.4515 132.116 67.0344 132.526C67.6516 132.937 68.423 133.143 69.3487 133.143C69.9316 133.143 70.3944 133.023 70.7373 132.783C71.0802 132.509 71.2516 132.184 71.2516 131.807C71.2516 131.157 70.8916 130.695 70.1716 130.421C69.4516 130.147 68.2344 129.839 66.5201 129.496C64.4287 129.086 62.6972 128.641 61.3258 128.161C59.9886 127.682 58.8058 126.86 57.7772 125.696C56.7829 124.532 56.2857 122.923 56.2857 120.869C56.2857 119.089 56.7486 117.479 57.6743 116.041C58.6343 114.569 60.0401 113.422 61.8915 112.601C63.7429 111.745 65.9887 111.317 68.6287 111.317C72.5373 111.317 75.5888 112.275 77.7831 114.193C80.0117 116.11 81.3488 118.609 81.7946 121.691H71.663C71.4916 120.903 71.1316 120.304 70.583 119.893C70.0344 119.448 69.2973 119.225 68.3716 119.225C67.7887 119.225 67.343 119.345 67.0344 119.585C66.7258 119.79 66.5715 120.116 66.5715 120.561C66.5715 121.143 66.9315 121.588 67.6516 121.896C68.3716 122.17 69.5201 122.461 71.0973 122.769C73.1888 123.18 74.9545 123.642 76.3945 124.156C77.8345 124.669 79.086 125.559 80.1488 126.826C81.2117 128.059 81.7431 129.77 81.7431 131.962C81.7431 133.673 81.246 135.214 80.2517 136.583C79.2574 137.953 77.8174 139.031 75.9316 139.819C74.0802 140.606 71.903 141 69.4001 141Z" fill="#037B31"/>
<path d="M98.8685 141C95.9542 141 93.3313 140.401 90.9998 139.203C88.6684 138.004 86.8341 136.292 85.4969 134.067C84.1941 131.807 83.5426 129.171 83.5426 126.158C83.5426 123.146 84.1941 120.526 85.4969 118.301C86.8341 116.041 88.6684 114.313 90.9998 113.114C93.3313 111.916 95.9542 111.317 98.8685 111.317C101.783 111.317 104.406 111.916 106.737 113.114C109.069 114.313 110.886 116.041 112.189 118.301C113.526 120.526 114.194 123.146 114.194 126.158C114.194 129.171 113.526 131.807 112.189 134.067C110.886 136.292 109.069 138.004 106.737 139.203C104.406 140.401 101.783 141 98.8685 141ZM98.8685 131.14C99.9314 131.14 100.823 130.729 101.543 129.907C102.263 129.051 102.623 127.802 102.623 126.158C102.623 124.515 102.263 123.283 101.543 122.461C100.823 121.605 99.9314 121.177 98.8685 121.177C97.8056 121.177 96.9142 121.605 96.1942 122.461C95.4742 123.283 95.1142 124.515 95.1142 126.158C95.1142 127.802 95.457 129.051 96.1428 129.907C96.8628 130.729 97.7713 131.14 98.8685 131.14Z" fill="#037B31"/>
<path d="M115.759 126.158C115.759 123.146 116.376 120.526 117.611 118.301C118.879 116.041 120.628 114.313 122.856 113.114C125.119 111.916 127.691 111.317 130.571 111.317C134.342 111.317 137.514 112.378 140.085 114.501C142.691 116.624 144.336 119.568 145.022 123.334H132.936C132.491 121.827 131.616 121.074 130.313 121.074C129.388 121.074 128.651 121.502 128.102 122.358C127.588 123.214 127.331 124.481 127.331 126.158C127.331 127.836 127.588 129.103 128.102 129.959C128.651 130.815 129.388 131.243 130.313 131.243C131.616 131.243 132.491 130.489 132.936 128.983H145.022C144.336 132.749 142.691 135.693 140.085 137.816C137.514 139.939 134.342 141 130.571 141C127.691 141 125.119 140.401 122.856 139.203C120.628 138.004 118.879 136.292 117.611 134.067C116.376 131.807 115.759 129.171 115.759 126.158Z" fill="#037B31"/>
<path d="M153.313 120.946C151.325 120.946 149.73 120.415 148.53 119.354C147.33 118.293 146.73 116.957 146.73 115.348C146.73 113.705 147.33 112.352 148.53 111.291C149.73 110.196 151.325 109.648 153.313 109.648C155.268 109.648 156.845 110.196 158.045 111.291C159.245 112.352 159.845 113.705 159.845 115.348C159.845 116.957 159.245 118.293 158.045 119.354C156.845 120.415 155.268 120.946 153.313 120.946ZM158.97 122.974V140.641H147.553V122.974H158.97Z" fill="#037B31"/>
<path d="M161.54 126.158C161.54 123.111 162.055 120.475 163.083 118.25C164.146 115.99 165.586 114.278 167.403 113.114C169.22 111.916 171.26 111.317 173.523 111.317C175.409 111.317 177.038 111.711 178.409 112.498C179.78 113.251 180.826 114.295 181.546 115.631V111.676H192.912V140.641H181.546V136.686C180.826 138.021 179.78 139.083 178.409 139.87C177.038 140.623 175.409 141 173.523 141C171.26 141 169.22 140.418 167.403 139.254C165.586 138.056 164.146 136.344 163.083 134.118C162.055 131.859 161.54 129.205 161.54 126.158ZM181.546 126.158C181.546 124.618 181.152 123.419 180.363 122.564C179.575 121.708 178.563 121.28 177.329 121.28C176.095 121.28 175.083 121.708 174.295 122.564C173.506 123.419 173.112 124.618 173.112 126.158C173.112 127.699 173.506 128.897 174.295 129.753C175.083 130.609 176.095 131.037 177.329 131.037C178.563 131.037 179.575 130.609 180.363 129.753C181.152 128.897 181.546 127.699 181.546 126.158Z" fill="#037B31"/>
<path d="M208 78V140.641H196.583V78H208Z" fill="#037B31"/>
<defs>
<filter id="filter0_d_523_72" x="0" y="0" width="258" height="213" filterUnits="userSpaceOnUse" color-interpolation-filters="sRGB">
<feFlood flood-opacity="0" result="BackgroundImageFix"/>
<feColorMatrix in="SourceAlpha" type="matrix" values="0 0 0 0 0 0 0 0 0 0 0 0 0 0 0 0 0 0 127 0" result="hardAlpha"/>
<feOffset dy="10"/>
<feGaussianBlur stdDeviation="10"/>
<feComposite in2="hardAlpha" operator="out"/>
<feColorMatrix type="matrix" values="0 0 0 0 0 0 0 0 0 0 0 0 0 0 0 0 0 0 0.3 0"/>
<feBlend mode="normal" in2="BackgroundImageFix" result="effect1_dropShadow_523_72"/>
<feBlend mode="normal" in="SourceGraphic" in2="effect1_dropShadow_523_72" result="shape"/>
</filter>
</defs>
</svg>
